<mxfile host="app.diagrams.net" modified="2023-08-31T20:00:07.051Z" agent="Mozilla/5.0 (Windows NT 10.0; Win64; x64) AppleWebKit/537.36 (KHTML, like Gecko) Chrome/116.0.0.0 Safari/537.36" version="21.7.1" etag="j3No-y_2U_3E07hiltEo" type="github">
  <diagram name="Page-1" id="IHf5rn2S-a87yjPwh4_a">
    <mxGraphModel>
      <root>
        <mxCell id="0" />
        <mxCell id="1" parent="0" />
      </root>
    </mxGraphModel>
  </diagram>
</mxfile>
